<svg width="32" height="32" viewBox="0 0 32 32" fill="none" xmlns="http://www.w3.org/2000/svg">
<path d="M16.6811 19.674C16.6911 19.662 16.6951 19.646 16.7051 19.634L23.6871 11.92C24.0771 11.486 24.0771 10.782 23.6871 10.348C23.6831 10.344 23.6791 10.342 23.6751 10.34C23.5883 10.2349 23.4797 10.15 23.3567 10.0913C23.2337 10.0326 23.0994 10.0014 22.9631 10H8.99712C8.85834 10.0022 8.72175 10.0349 8.59699 10.0958C8.47224 10.1566 8.36236 10.2441 8.27512 10.352L8.27112 10.348C8.08238 10.5664 7.97852 10.8454 7.97852 11.134C7.97852 11.4226 8.08238 11.7016 8.27112 11.92L15.2691 19.674C15.3562 19.7761 15.4645 19.8581 15.5864 19.9144C15.7082 19.9706 15.8409 19.9997 15.9751 19.9997C16.1093 19.9997 16.242 19.9706 16.3639 19.9144C16.4858 19.8581 16.594 19.7761 16.6811 19.674Z" fill="black"/>
</svg>
