<svg width="92" height="92" viewBox="0 0 92 92" fill="none" xmlns="http://www.w3.org/2000/svg">
<path d="M91.8 27.3L81.1 61C80.3 63.4 78.2 65 75.7 65H34.4C32 65 29.7 63.5 28.9 61.3L13.1 19H4C1.8 19 0 17.2 0 15C0 12.8 1.8 11 4 11H15.9C17.6 11 19.1 12.1 19.7 13.7L36 57H74L82.5 30H35.4C33.2 30 31.4 28.2 31.4 26C31.4 23.8 33.2 22 35.4 22H88C89.3 22 90.5 22.7 91.2 23.7C92 24.7 92.2 26.1 91.8 27.3ZM36.4 70.3C34.7 70.3 33 71 31.8 72.2C30.6 73.4 29.9 75.1 29.9 76.8C29.9 78.5 30.6 80.2 31.8 81.4C33 82.6 34.7 83.3 36.4 83.3C38.1 83.3 39.8 82.6 41 81.4C42.2 80.2 42.9 78.5 42.9 76.8C42.9 75.1 42.2 73.4 41 72.2C39.8 71 38.1 70.3 36.4 70.3ZM72.3 70.3C70.6 70.3 68.9 71 67.7 72.2C66.5 73.4 65.8 75.1 65.8 76.8C65.8 78.5 66.5 80.2 67.7 81.4C68.9 82.6 70.6 83.3 72.3 83.3C74 83.3 75.7 82.6 76.9 81.4C78.1 80.2 78.8 78.5 78.8 76.8C78.8 75.1 78.1 73.4 76.9 72.2C75.7 71 74 70.3 72.3 70.3Z" fill="white"/>
</svg>
